<svg width="66" height="61" viewBox="0 0 66 61" fill="none" xmlns="http://www.w3.org/2000/svg">
<mask id="mask0_22_36" style="mask-type:alpha" maskUnits="userSpaceOnUse" x="-12" y="-12" width="85" height="85">
<rect x="-11.9059" y="1.07213" width="72.5692" height="72.5692" transform="rotate(-10 -11.9059 1.07213)" fill="#D9D9D9"/>
</mask>
<g mask="url(#mask0_22_36)">
<path d="M32.5142 48.2814C27.706 48.8733 23.3622 47.7459 19.4828 44.899C15.6034 42.0521 13.2393 38.2216 12.3905 33.4075C11.5154 28.4446 12.5086 23.9198 15.3701 19.8331C18.2316 15.7465 22.1438 13.2656 27.1068 12.3905C31.9208 11.5416 36.3289 12.4531 40.3309 15.1248C44.3329 17.7966 46.8781 21.4928 47.9663 26.2135L41.3848 25.455C40.2671 22.8887 38.4902 20.9377 36.0542 19.6017C33.6182 18.2658 30.9858 17.8472 28.1569 18.346C24.8813 18.9236 22.2829 20.5844 20.3616 23.3282C18.4403 26.0721 17.7685 29.0819 18.346 32.3574C18.8448 35.1863 20.1385 37.5168 22.227 39.349C24.3155 41.1812 26.7567 42.1836 29.5504 42.3562L32.5142 48.2814ZM38.1615 59.4135C37.7324 59.5915 37.2944 59.7199 36.8478 59.7987L35.5078 60.035C31.3885 60.7613 27.3796 60.6622 23.4809 59.7377C19.5823 58.8132 16.0567 57.2472 12.9042 55.0398C9.75162 52.8323 7.07426 50.055 4.8721 46.7077C2.66994 43.3603 1.20569 39.6271 0.479349 35.5078C-0.246988 31.3885 -0.147902 27.3796 0.776605 23.481C1.70111 19.5823 3.26709 16.0568 5.47453 12.9042C7.68198 9.75164 10.4594 7.07428 13.8067 4.87212C17.154 2.66996 20.8873 1.20571 25.0065 0.479373C29.1258 -0.246965 33.1347 -0.147879 37.0333 0.776629C40.932 1.70114 44.4576 3.26711 47.6101 5.47456C50.7627 7.682 53.44 10.4594 55.6422 13.8067C57.8444 17.154 59.3086 20.8873 60.0349 25.0065L60.2712 26.3465C60.35 26.7932 60.3791 27.2486 60.3586 27.7128L54.2369 26.95L54.0794 26.0567C52.9067 19.4063 49.6057 14.1803 44.1763 10.3785C38.7469 6.57683 32.707 5.26229 26.0566 6.43493C19.4063 7.60757 14.1802 10.9086 10.3785 16.338C6.5768 21.7674 5.26227 27.8073 6.43491 34.4577C7.60755 41.108 10.9086 46.3341 16.338 50.1358C21.7674 53.9375 27.8073 55.252 34.4576 54.0794L35.351 53.9219L38.1615 59.4135ZM61.1559 57.0477L46.1812 46.5623L44.4411 58.4598L30.2571 30.2572L61.6101 33.9399L51.0253 39.6442L66 50.1296L61.1559 57.0477Z" fill="#1C1B1F"/>
</g>
</svg>
