<svg width="138" height="138" viewBox="0 0 138 138" fill="none" xmlns="http://www.w3.org/2000/svg">
<circle cx="69" cy="69" r="69" fill="black"/>
<mask id="mask0_85_99" style="mask-type:alpha" maskUnits="userSpaceOnUse" x="36" y="33" width="72" height="72">
<rect x="36" y="33" width="72" height="72" fill="#D9D9D9"/>
</mask>
<g mask="url(#mask0_85_99)">
<path d="M64.8 79.8L69 75.525L62.475 69L69 62.475L64.8 58.2L54 69L64.8 79.8ZM79.2 79.8L90 69L79.2 58.2L75 62.475L81.525 69L75 75.525L79.2 79.8ZM51 96C49.35 96 47.9375 95.4125 46.7625 94.2375C45.5875 93.0625 45 91.65 45 90V48C45 46.35 45.5875 44.9375 46.7625 43.7625C47.9375 42.5875 49.35 42 51 42H93C94.65 42 96.0625 42.5875 97.2375 43.7625C98.4125 44.9375 99 46.35 99 48V90C99 91.65 98.4125 93.0625 97.2375 94.2375C96.0625 95.4125 94.65 96 93 96H51ZM51 90H93V48H51V90Z" fill="white"/>
</g>
</svg>
