<svg width="138" height="138" viewBox="0 0 138 138" fill="none" xmlns="http://www.w3.org/2000/svg">
<circle cx="69" cy="69" r="69" fill="black"/>
<mask id="mask0_12_87" style="mask-type:alpha" maskUnits="userSpaceOnUse" x="33" y="32" width="72" height="72">
<rect x="33" y="32" width="72" height="72" fill="#D9D9D9"/>
</mask>
<g mask="url(#mask0_12_87)">
<path d="M53.25 95L52.5 88.4L61.05 64.85C61.8 65.55 62.6125 66.1375 63.4875 66.6125C64.3625 67.0875 65.3 67.45 66.3 67.7L58.05 90.35L53.25 95ZM84.75 95L79.95 90.35L71.7 67.7C72.7 67.45 73.6375 67.0875 74.5125 66.6125C75.3875 66.1375 76.2 65.55 76.95 64.85L85.5 88.4L84.75 95ZM69 65C66.5 65 64.375 64.125 62.625 62.375C60.875 60.625 60 58.5 60 56C60 54.05 60.5625 52.3125 61.6875 50.7875C62.8125 49.2625 64.25 48.2 66 47.6V41H72V47.6C73.75 48.2 75.1875 49.2625 76.3125 50.7875C77.4375 52.3125 78 54.05 78 56C78 58.5 77.125 60.625 75.375 62.375C73.625 64.125 71.5 65 69 65ZM69 59C69.85 59 70.5625 58.7125 71.1375 58.1375C71.7125 57.5625 72 56.85 72 56C72 55.15 71.7125 54.4375 71.1375 53.8625C70.5625 53.2875 69.85 53 69 53C68.15 53 67.4375 53.2875 66.8625 53.8625C66.2875 54.4375 66 55.15 66 56C66 56.85 66.2875 57.5625 66.8625 58.1375C67.4375 58.7125 68.15 59 69 59Z" fill="white"/>
</g>
</svg>
