<svg width="138" height="138" viewBox="0 0 138 138" fill="none" xmlns="http://www.w3.org/2000/svg">
<circle cx="69" cy="69" r="69" fill="black"/>
<mask id="mask0_85_109" style="mask-type:alpha" maskUnits="userSpaceOnUse" x="33" y="34" width="72" height="72">
<rect x="33" y="34" width="72" height="72" fill="#D9D9D9"/>
</mask>
<g mask="url(#mask0_85_109)">
<path d="M66 100C64.35 100 62.9375 99.4125 61.7625 98.2375C60.5875 97.0625 60 95.65 60 94V82H51C49.35 82 47.9375 81.4125 46.7625 80.2375C45.5875 79.0625 45 77.65 45 76V55C45 51.7 46.175 48.875 48.525 46.525C50.875 44.175 53.7 43 57 43H93V76C93 77.65 92.4125 79.0625 91.2375 80.2375C90.0625 81.4125 88.65 82 87 82H78V94C78 95.65 77.4125 97.0625 76.2375 98.2375C75.0625 99.4125 73.65 100 72 100H66ZM51 64H87V49H84V61H78V49H75V55H69V49H57C55.35 49 53.9375 49.5875 52.7625 50.7625C51.5875 51.9375 51 53.35 51 55V64ZM51 76H87V70H51V76Z" fill="white"/>
</g>
</svg>
